<?xml version="1.0" encoding="utf-8"?>
<!-- Generator: Adobe Illustrator 24.1.2, SVG Export Plug-In . SVG Version: 6.00 Build 0)  -->
<svg version="1.1" id="圖層_1" xmlns="http://www.w3.org/2000/svg" xmlns:xlink="http://www.w3.org/1999/xlink" x="0px" y="0px"
	 viewBox="0 0 39.2 9.1" style="enable-background:new 0 0 39.2 9.1;" xml:space="preserve">
<style type="text/css">
	.st0{fill:#005EFF;}
	.st1{fill:#D0D0D0;}
	.st2{fill:#94989B;}
	.st3{fill:#ED4C5C;}
	.st4{fill:#F9F3D9;}
	.st5{fill:#D6EEF0;}
	.st6{fill:#89664C;}
	.st7{fill:#DBB471;}
	.st8{fill:#83BF4F;}
	.st9{fill:#699635;}
</style>
<g>
	<path class="st0" d="M12.3,4.6c-0.1,0.6-0.3,1.3-0.5,1.8c0.1,0.1,0.2,0.2,0.4,0.3c0.5,0.3,1.1,0.3,1.9,0.3c0.8,0,2-0.1,2.8-0.2
		c-0.1,0.2-0.2,0.6-0.2,0.8c-0.6,0-1.8,0.1-2.6,0.1c-0.9,0-1.5-0.1-2-0.4c-0.3-0.2-0.5-0.4-0.7-0.4c-0.2,0-0.4,0.5-0.6,0.9L10.3,7
		c0.2-0.3,0.5-0.5,0.7-0.6c0.2-0.3,0.3-0.8,0.4-1.2h-0.9c0.2-0.4,0.3-0.9,0.5-1.5h-0.6V3H12c-0.1,0.5-0.3,1-0.5,1.5h0.3l0.1,0
		L12.3,4.6z M11.1,2.8C11,2.5,10.9,2,10.7,1.6l0.7-0.2c0.1,0.4,0.3,0.8,0.4,1.1L11.1,2.8z M14.7,5.1c0.2,0.1,0.4,0.2,0.5,0.3
		c0.2-0.1,0.3-0.2,0.5-0.4h-1.2c-0.2,0.2-0.4,0.3-0.6,0.5V6l0.9-0.2c0,0.2,0,0.4,0,0.5c-1.3,0.3-1.5,0.4-1.6,0.5
		c0-0.2-0.1-0.4-0.2-0.5c0.1,0,0.2-0.1,0.2-0.4V5.8C13,5.9,12.7,6,12.5,6.1C12.4,6,12.2,5.7,12,5.5c0.5-0.1,1.1-0.3,1.5-0.5h-0.9
		V3.5H16v1.4l0.5,0.3c-0.2,0.2-0.5,0.3-0.7,0.5c0.3,0.2,0.6,0.3,0.8,0.5l-0.4,0.5c-0.4-0.3-1.2-0.8-1.9-1.1L14.7,5.1z M16.5,3.2
		h-4.4V2.6h1.7V2.3h-1.4V1.8h1.4V1.4h0.8v0.4h1.4v0.6h-1.4v0.3h1.8V3.2z M15.3,4h-1.9v0.4h1.9V4z M24.2,7.4H22v0.3h-0.7V4.2
		l-0.1,0.1c-0.1-0.1-0.2-0.2-0.4-0.3v0.7h-1.1L19.8,5h1.4v2.1c0,0.3-0.1,0.5-0.3,0.6c-0.2,0.1-0.5,0.1-0.9,0.1
		c0-0.2-0.1-0.4-0.2-0.6c0.2,0,0.5,0,0.6,0c0.1,0,0.1,0,0.1-0.1V6.8L20.1,7c0-0.1-0.1-0.2-0.1-0.3c-0.4,0.1-0.8,0.2-1.2,0.3
		l-0.2-0.5l0.2,0c0.1-0.2,0.1-0.5,0.2-0.8h-0.4v2.2H18V5.6h-0.2V5H18V4.8h0.6V5h0.5c0-0.1,0-0.2,0.1-0.4h-1.1V2.7h0.6v1.3h1.6V3.7
		L20,4c-0.1-0.1-0.2-0.2-0.4-0.4c-0.2,0.1-0.3,0.3-0.5,0.4c-0.1-0.1-0.3-0.2-0.4-0.3c0.2-0.1,0.3-0.3,0.5-0.4
		C19.1,3.2,19,3.1,18.8,3l0.3-0.3c0.1,0.1,0.3,0.2,0.4,0.3c0.1-0.1,0.2-0.2,0.3-0.3l0.5,0.2c-0.1,0.1-0.2,0.3-0.4,0.4
		c0.1,0.1,0.3,0.2,0.4,0.3V2.7h0.6v0.7c0.4-0.6,0.7-1.3,0.9-2.1l0.7,0.2c-0.1,0.4-0.2,0.7-0.4,1.1h2v0.7h-0.8V4h0.7v0.7h-0.7v0.7
		h0.7V6h-0.7v0.7h0.8L24.2,7.4z M21.2,2.5h-3.3V1.9h1.3c0-0.1-0.1-0.3-0.1-0.4l0.7-0.1c0.1,0.2,0.1,0.4,0.2,0.5h1.2V2.5z M19.7,5.6
		c-0.1,0.3-0.1,0.5-0.2,0.7l0.4-0.1c-0.1-0.1-0.1-0.3-0.2-0.4l0.4-0.1c0.1,0.3,0.3,0.6,0.4,0.9v-1H19.7z M22.7,3.4H22V4h0.6V3.4z
		 M22.7,4.7H22v0.7h0.6V4.7z M22,6.7h0.6V6H22V6.7z M22.9,2.6c-0.1-0.3-0.2-0.7-0.4-1l0.7-0.2c0.2,0.3,0.3,0.7,0.4,0.9L22.9,2.6z
		 M26.6,4.3c0,1.1-0.2,2.5-0.7,3.5c-0.1-0.1-0.4-0.4-0.6-0.5c0.5-1,0.6-2.4,0.6-3.4v-2h2.4c0-0.1-0.1-0.3-0.1-0.4L29,1.3
		c0.1,0.2,0.1,0.4,0.2,0.5h2.4v0.7h-1.9v0.3h1.6v1.4h-1.4v0.3h1.4V5h-1.4v0.1c0,0.2,0,0.2,0.3,0.2h0.7c0.2,0,0.2,0,0.2-0.2
		c0.1,0.1,0.4,0.2,0.6,0.2c-0.1,0.4-0.3,0.6-0.7,0.6H30c-0.7,0-0.9-0.2-0.9-0.7V4.3h-1.5v0.2H29v0.4h-1.3v0.3L29,5.1
		c0,0.1,0,0.3,0,0.4c-1.6,0.2-1.9,0.2-2,0.3c0-0.1-0.1-0.4-0.2-0.5C26.9,5.3,27,5.2,27,5V4.3H26.6z M29.3,7h2.3v0.6h-5.3V7h2.2V6.7
		h-1.7V6.1h1.7V5.7h0.8v0.4h1.9v0.6h-1.9V7z M26.6,2.5v0.3h0.8V2.5H26.6z M26.6,3.7h0.8V3.4h-0.8V3.7z M29,2.5h-0.8v0.3H29V2.5z
		 M28.1,3.7H29V3.4h-0.8V3.7z M29.7,3.4v0.4h0.8V3.4H29.7z M38.6,6.4v1.3h-0.7V7.6h-0.9v0.2h-0.7V6.2h1.6c-0.4-0.1-0.9-0.3-1.3-0.4
		L37,5.6h-1.9l0.4,0.2c-0.3,0.2-0.7,0.3-1.1,0.4h1.5v1.5h-0.7V7.6h-0.9v0.2h-0.7V6.5l-0.2,0.1c-0.1-0.1-0.3-0.4-0.4-0.5
		c0.6-0.1,1.3-0.2,1.9-0.4h-1V3.7h1.8c0-0.1,0-0.1,0-0.2H33V3h6v0.5h-2.7c0,0.1,0,0.1-0.1,0.2h2.2v1.9h-0.9c0.6,0.1,1.2,0.3,1.6,0.5
		L38.6,6.4z M35.8,2.8h-2.3V1.6h2.3V2.8z M35.1,6.7h-0.9v0.4h0.9V6.7z M35.1,2h-0.9v0.3h0.9V2z M34.4,4.2h3.2V4h-3.2V4.2z M34.4,4.7
		h3.2V4.5h-3.2V4.7z M34.4,5.3h3.2V5.1h-3.2V5.3z M38.5,2.8h-2.3V1.6h2.3V2.8z M37.8,2h-0.9v0.3h0.9V2z M37.9,7.1V6.7h-0.9v0.4H37.9
		z"/>
</g>
<g>
	<g>
		<rect x="4.6" y="0.3" class="st1" width="0.5" height="1"/>
		<rect x="5.1" y="0.3" class="st2" width="0.3" height="1"/>
		<rect x="4.4" class="st1" width="0.9" height="0.3"/>
		<rect x="5.3" class="st2" width="0.3" height="0.3"/>
		<polygon class="st3" points="3.4,0 0.1,1.9 6.6,1.9 		"/>
		<rect x="1" y="1.9" class="st4" width="4.7" height="2.9"/>
		<rect x="2.8" y="2.7" class="st5" width="1.2" height="1.2"/>
		<path class="st6" d="M3.4,3.9V3.4h0.5v0.5L3.4,3.9L3.4,3.9z M2.8,3.9V3.4h0.5v0.5L2.8,3.9L2.8,3.9z M3.3,2.7v0.5H2.8V2.7H3.3z
			 M3.9,2.7v0.5H3.4V2.7H3.9z M2.6,2.6V4h1.5V2.6L2.6,2.6L2.6,2.6z"/>
		<rect x="0.7" y="5.9" class="st4" width="6.9" height="2.9"/>
		<rect x="5.3" y="6.8" class="st5" width="1.2" height="1.2"/>
		<path class="st6" d="M5.9,7.9V7.4h0.5v0.5H5.9z M5.3,7.9V7.4h0.5v0.5H5.3z M5.8,6.8v0.5H5.3V6.8H5.8z M6.4,6.8v0.5H5.9V6.8H6.4z
			 M5.1,6.6v1.5h1.5V6.6L5.1,6.6L5.1,6.6z"/>
		<rect x="2.5" y="7" class="st6" width="1.3" height="1.8"/>
		<rect x="2.4" y="6.8" class="st7" width="1.5" height="0.3"/>
		<circle class="st4" cx="3.5" cy="7.8" r="0.1"/>
		<rect y="8.8" class="st8" width="9.1" height="0.3"/>
		<polygon class="st3" points="7.2,4.7 1,4.7 0,5.9 8.2,5.9 		"/>
		<path class="st8" d="M9.1,8.2c0-0.2-0.1-0.3-0.3-0.3c0,0-0.1,0-0.1,0c0-0.1-0.1-0.1-0.2-0.1c-0.1,0-0.1,0-0.1,0.1c0,0,0,0,0-0.1
			c0-0.1-0.1-0.2-0.2-0.2c-0.1,0-0.2,0.1-0.2,0.2c0,0-0.1,0-0.1,0c-0.1,0-0.2,0.1-0.2,0.2v1h1.3c0.1,0,0.2-0.1,0.2-0.2
			c0-0.1,0-0.1-0.1-0.2C9.1,8.3,9.1,8.3,9.1,8.2z"/>
		<path class="st9" d="M9.1,8.6c0-0.1,0-0.1-0.1-0.2c0-0.1,0.1-0.1,0.1-0.2c0-0.2-0.1-0.3-0.3-0.3c0,0-0.1,0-0.1,0
			c0-0.1-0.1-0.1-0.1-0.1C8.5,7.8,8.4,7.9,8.4,8c0,0,0,0,0,0.1c0,0,0,0-0.1,0c-0.1,0-0.2,0.1-0.2,0.2c0,0.1,0,0.1,0.1,0.1
			c0,0-0.1,0.1-0.1,0.2c0,0.2,0.1,0.3,0.3,0.3l0,0h0.4C9,8.8,9.1,8.7,9.1,8.6z"/>
		<path class="st9" d="M8.1,8.6c0,0.1-0.1,0-0.2,0c-0.1,0-0.2,0.1-0.2,0c0-0.1,0.1-0.2,0.2-0.2C8.1,8.4,8.1,8.5,8.1,8.6z"/>
		<path class="st9" d="M7.8,8.3C7.8,8.4,7.8,8.3,7.8,8.3c-0.1,0-0.2,0-0.2,0C7.6,8.3,7.7,8.2,7.8,8.3C7.8,8.2,7.8,8.3,7.8,8.3z"/>
		<path class="st8" d="M7.9,8.1C7.9,8.1,7.9,8.1,7.9,8.1c-0.1,0-0.2,0-0.2,0C7.8,8,7.8,8,7.9,8.1C7.9,8,7.9,8,7.9,8.1z"/>
		<path class="st8" d="M8.6,8.5c0,0.1,0,0-0.1,0c-0.1,0-0.1,0.1-0.1,0c0-0.1,0-0.1,0.1-0.1C8.5,8.4,8.6,8.4,8.6,8.5z"/>
		<path class="st8" d="M8.9,8.2c0,0.1-0.1-0.1-0.2-0.1c-0.1,0-0.2,0.1-0.2,0.1C8.6,8.1,8.7,8,8.7,8C8.8,8,8.9,8.1,8.9,8.2z"/>
		<path class="st8" d="M8.9,8.6C8.9,8.6,8.9,8.6,8.9,8.6c-0.1,0-0.2,0-0.2,0C8.7,8.5,8.8,8.5,8.9,8.6C8.9,8.5,8.9,8.5,8.9,8.6z"/>
		<path class="st8" d="M8.2,7.9c0,0.1,0,0-0.1,0C8,7.9,8,8,8,7.9c0-0.1,0-0.1,0.1-0.1C8.1,7.8,8.2,7.9,8.2,7.9z"/>
		<path class="st8" d="M1.5,8.2c0-0.2-0.1-0.3-0.3-0.3c0,0-0.1,0-0.1,0c0-0.1-0.1-0.1-0.2-0.1c-0.1,0-0.1,0-0.1,0.1c0,0,0,0,0-0.1
			c0-0.1-0.1-0.2-0.2-0.2c-0.1,0-0.2,0.1-0.2,0.2c0,0-0.1,0-0.1,0C0.1,7.7,0,7.8,0,7.8v1h1.3c0.1,0,0.2-0.1,0.2-0.2
			c0-0.1,0-0.1-0.1-0.2C1.5,8.3,1.5,8.3,1.5,8.2z"/>
		<path class="st9" d="M1.5,8.6c0-0.1,0-0.1-0.1-0.2c0-0.1,0.1-0.1,0.1-0.2c0-0.2-0.1-0.3-0.3-0.3c0,0-0.1,0-0.1,0
			C1.1,7.9,1,7.8,1,7.8C0.9,7.8,0.8,7.9,0.8,8c0,0,0,0,0,0.1c0,0,0,0-0.1,0c-0.1,0-0.2,0.1-0.2,0.2c0,0.1,0,0.1,0.1,0.1
			c0,0-0.1,0.1-0.1,0.2c0,0.2,0.1,0.3,0.3,0.3l0,0h0.4C1.4,8.8,1.5,8.7,1.5,8.6z"/>
		<path class="st9" d="M0.6,8.6c0,0.1-0.1,0-0.2,0s-0.2,0.1-0.2,0c0-0.1,0.1-0.2,0.2-0.2C0.5,8.4,0.6,8.5,0.6,8.6z"/>
		<path class="st9" d="M0.2,8.3C0.2,8.4,0.2,8.3,0.2,8.3c-0.1,0-0.2,0-0.2,0C0.1,8.3,0.1,8.2,0.2,8.3C0.2,8.2,0.2,8.3,0.2,8.3z"/>
		<path class="st8" d="M0.4,8.1C0.4,8.1,0.3,8.1,0.4,8.1c-0.1,0-0.2,0-0.2,0C0.2,8,0.2,8,0.4,8.1C0.3,8,0.4,8,0.4,8.1z"/>
		<path class="st8" d="M1,8.5c0,0.1,0,0-0.1,0c-0.1,0-0.1,0.1-0.1,0c0-0.1,0-0.1,0.1-0.1C1,8.4,1,8.4,1,8.5z"/>
		<path class="st8" d="M1.3,8.2c0,0.1-0.1-0.1-0.2-0.1C1.1,8.1,1,8.3,1,8.2C1,8.1,1.1,8,1.2,8C1.3,8,1.3,8.1,1.3,8.2z"/>
		<path class="st8" d="M1.3,8.6C1.3,8.6,1.3,8.6,1.3,8.6c-0.1,0-0.2,0-0.2,0C1.2,8.5,1.2,8.5,1.3,8.6C1.3,8.5,1.3,8.5,1.3,8.6z"/>
		<path class="st8" d="M0.6,7.9c0,0.1,0,0-0.1,0c-0.1,0-0.1,0.1-0.1,0c0-0.1,0-0.1,0.1-0.1C0.6,7.8,0.6,7.9,0.6,7.9z"/>
	</g>
</g>
<g>
</g>
<g>
</g>
<g>
</g>
<g>
</g>
<g>
</g>
<g>
</g>
<g>
</g>
<g>
</g>
<g>
</g>
<g>
</g>
<g>
</g>
<g>
</g>
<g>
</g>
<g>
</g>
<g>
</g>
</svg>
