<?xml version="1.0" encoding="utf-8"?>
<!-- Generator: Adobe Illustrator 24.1.2, SVG Export Plug-In . SVG Version: 6.00 Build 0)  -->
<svg version="1.1" id="圖層_1" focusable="false" xmlns="http://www.w3.org/2000/svg" xmlns:xlink="http://www.w3.org/1999/xlink"
	 x="0px" y="0px" viewBox="0 0 30 23.3" style="enable-background:new 0 0 30 23.3;" xml:space="preserve">
<style type="text/css">
	.st0{fill:#005EFF;}
</style>
<path class="st0" d="M14.6,6.1L5,14v8.5c0,0.5,0.4,0.8,0.8,0.8h5.8c0.5,0,0.8-0.4,0.8-0.8v-5c0-0.5,0.4-0.8,0.8-0.8h3.3
	c0.5,0,0.8,0.4,0.8,0.8v5c0,0.5,0.4,0.8,0.8,0.8l0,0h5.8c0.5,0,0.8-0.4,0.8-0.8V14l-9.6-7.9C15.2,5.9,14.8,5.9,14.6,6.1L14.6,6.1z
	 M29.8,11.4l-4.4-3.6V0.6c0-0.3-0.3-0.6-0.6-0.6h-2.9c-0.3,0-0.6,0.3-0.6,0.6v3.8l-4.7-3.8c-0.9-0.8-2.3-0.8-3.2,0L0.2,11.4
	C0,11.6-0.1,12,0.1,12.3l0,0l1.3,1.6C1.6,14.2,2,14.2,2.3,14l0,0L14.6,3.9c0.2-0.2,0.6-0.2,0.8,0L27.6,14c0.3,0.2,0.7,0.2,0.9-0.1
	l0,0l1.3-1.6C30.1,12,30,11.6,29.8,11.4L29.8,11.4L29.8,11.4z"/>
</svg>
