<?xml version="1.0" encoding="utf-8"?>
<!-- Generator: Adobe Illustrator 24.1.2, SVG Export Plug-In . SVG Version: 6.00 Build 0)  -->
<svg version="1.1" id="圖層_1" focusable="false" xmlns="http://www.w3.org/2000/svg" xmlns:xlink="http://www.w3.org/1999/xlink"
	 x="0px" y="0px" viewBox="0 0 40 28.1" style="enable-background:new 0 0 40 28.1;" xml:space="preserve">
<style type="text/css">
	.st0{fill:#005EFF;}
</style>
<path class="st0" d="M39.2,4.4c-0.5-1.7-1.8-3.1-3.5-3.6C32.5,0,20,0,20,0S7.5,0,4.4,0.8C2.7,1.3,1.3,2.7,0.8,4.4
	C0,7.5,0,14.1,0,14.1s0,6.6,0.8,9.7c0.5,1.7,1.8,3,3.5,3.5C7.5,28.1,20,28.1,20,28.1s12.5,0,15.6-0.8c1.7-0.5,3.1-1.8,3.5-3.5
	c0.8-3.1,0.8-9.7,0.8-9.7S40,7.5,39.2,4.4z M15.9,20V8.1l10.5,5.9L15.9,20L15.9,20z"/>
</svg>
